# xmcd
#
# Track frame offsets:
#	150
#	14937
#	30585
#	48470
#	63085
#	80867
#	91650
#	102637
#	122022
#	141055
#	155167
#	168785
#	177852
#	192850
#	213695
#	238602
#	263535
#
# Disc length: 3826 seconds
#
# Revision: 7
# Processed by: cddbd v1.5.2PL0 Copyright (c) Steve Scherf et al.
# Submitted via: EZCDAudioConverter 3.1.5.1
#
DISCID=eb0ef011
DTITLE=Γιώργος Νταλάρας - Live and Unplugged
DYEAR=1999
DGENRE=laiko
TTITLE0=Ορχηστρικό
TTITLE1=Ένας Κόμπος Η Χαρά Μου
TTITLE2=Agrigento
TTITLE3=Λόγια Κλειδωμένα
TTITLE4=Ταξίδι Στα Κύθηρα
TTITLE5=Το Πολλαπλό Σου Είδωλο (Συχνάζεις Στα Μικρά Καφέ)
TTITLE6=Καραντί
TTITLE7=El Emigrante (Ο Μετανάστης)
TTITLE8=Τα Βεγγαλικά Σου Μάτια
TTITLE9=Κλάψτε Ουρανοί Κι Αστέρια
TTITLE10=Το Πεπρωμένο
TTITLE11=Τα Ματόκλαδα Σου Λάμπουν
TTITLE12=Η Μάγισσα Της Αραπιάς
TTITLE13=Dui Dui (Δυο - Δυο)
TTITLE14=Una Moneda Le Di (Ένα Νόμισμα Του Έδωσα)
TTITLE15=Voices
TTITLE16=Wooden Horse (Το Ξύλινο Άλογο Της Τροίας) - Περιπλάνηση	\nWooden Hors
TTITLE16=e (Το Ξύλινο Άλογο Της Τροίας) - Περιπλάνηση	\n
EXTD=
EXTT0=
EXTT1=
EXTT2=
EXTT3=
EXTT4=
EXTT5=
EXTT6=
EXTT7=
EXTT8=
EXTT9=
EXTT10=
EXTT11=
EXTT12=
EXTT13=
EXTT14=
EXTT15=
EXTT16=
PLAYORDER=
